<?xml version="1.0" encoding="utf-8"?>
<!-- Generator: Adobe Illustrator 22.1.0, SVG Export Plug-In . SVG Version: 6.00 Build 0)  -->
<svg version="1.1" id="Layer_1" xmlns="http://www.w3.org/2000/svg" xmlns:xlink="http://www.w3.org/1999/xlink" x="0px" y="0px"
	 viewBox="0 0 1000 1000" enable-background="new 0 0 1000 1000" xml:space="preserve">
<path fill-rule="evenodd" clip-rule="evenodd" fill="#303C42" d="M931.532,51.075c-283.658-68.1-579.407-68.1-863.065,0
	c0,0,0,315.133,0,358.66l0,0C68.928,648.978,237.871,880.064,500,1000c262.129-119.936,431.072-351.022,431.533-590.265
	C931.532,361.787,931.532,51.075,931.532,51.075z"/>
<path fill-rule="evenodd" clip-rule="evenodd" fill="#FFFFFF" d="M500,974.62C251.907,857.413,91.919,636.666,91.483,409.691V197.82
	C225.334,167.093,362.667,151.525,500,151.525s274.666,15.568,408.518,46.295v211.914C908.08,636.666,748.093,857.413,500,974.62z"
	/>
<g>
	<path fill="#DA1A32" d="M439.721,785.224v-48.379h-8.071v-6.619c2.273-0.266,4.437-1.128,6.492-2.581
		c2.056-1.455,3.536-3.218,4.437-5.289h6.619v62.867H439.721z"/>
	<path fill="#DA1A32" d="M493.723,770.886c0,4.179-1.474,7.722-4.412,10.629c-2.943,2.908-6.486,4.36-10.629,4.36h-0.751
		c-4.179,0-7.722-1.469-10.629-4.41c-2.908-2.941-4.36-6.469-4.36-10.579v-5.715c0-3.842,1.286-7.201,3.859-10.076
		c1.103-1.236,2.389-2.256,3.861-3.06c-2.541-1.303-4.512-3.476-5.915-6.517c-0.701-1.571-1.053-3.542-1.053-5.915v-3.409
		c0-4.077,1.203-7.453,3.609-10.128c2.675-3.008,6.217-4.512,10.629-4.512h0.751c4.446,0,8.005,1.505,10.679,4.512
		c2.406,2.708,3.609,6.084,3.609,10.128v3.409c0,3.909-1.17,7.151-3.509,9.726c-1.037,1.136-2.19,2.038-3.459,2.706
		c2.808,1.571,4.978,3.961,6.517,7.17c0.803,1.638,1.205,3.626,1.205,5.965V770.886z M484.548,738.775
		c-0.069-4.298-1.422-6.997-4.063-8.099c-0.601-0.266-1.32-0.4-2.156-0.4c-1.636,0-2.974,0.452-4.009,1.351
		c-0.837,0.733-1.43,1.673-1.782,2.824c-0.35,1.151-0.493,2.591-0.425,4.323c0.1,2.733,0.533,4.7,1.303,5.898
		c1.003,1.599,2.639,2.4,4.912,2.4c2.273,0,3.928-0.849,4.964-2.55C484.161,743.091,484.579,741.174,484.548,738.775z
		 M484.246,766.423c0-3.742-0.851-6.248-2.558-7.52c-0.801-0.602-1.921-0.901-3.359-0.901c-2.506,0-4.211,1.07-5.112,3.207
		c-0.537,1.305-0.803,3.043-0.803,5.214v3.01c0,2.073,0.635,3.742,1.907,5.012c1.068,1.072,2.406,1.638,4.009,1.705
		c2.575-0.133,4.363-1.403,5.366-3.809c0.366-0.803,0.551-1.771,0.551-2.908V766.423z"/>
	<path fill="#DA1A32" d="M527.086,722.305v9.526l-13.287,53.343h-9.299l13.287-53.343h-15.821v-9.526H527.086z"/>
	<path fill="#DA1A32" d="M548.298,776.199c4.344,0,6.517-2.019,6.517-6.059v-3.705c0-6.444-3.376-9.666-10.126-9.666v-8.113
		c3.642,0,6.331-1.018,8.071-3.055c1.603-1.836,2.406-4.406,2.406-7.713v-1.451c0-4.106-1.805-6.161-5.416-6.161
		c-2.004,0-3.476,0.766-4.41,2.294c-0.701,1.164-1.053,2.675-1.053,4.535v1.644h-9.274v-1.453c0-4.479,1.134-8.123,3.409-10.929
		c2.573-3.209,6.198-4.814,10.879-4.814c4.444,0,8.005,1.505,10.677,4.512c2.406,2.708,3.609,6.084,3.609,10.128v2.656
		c0,3.911-1.17,7.287-3.509,10.128c-1.001,1.203-2.173,2.223-3.509,3.057c2.808,1.571,4.981,3.961,6.519,7.17
		c0.801,1.638,1.203,3.626,1.203,5.965v4.964c0,4.646-1.588,8.456-4.762,11.431c-3.043,2.874-6.702,4.311-10.981,4.311
		c-4.177,0-7.72-1.469-10.627-4.41c-2.908-2.941-4.362-6.469-4.362-10.579v-1.553l9.025-0.703l0.2,2.206
		c0.133,1.571,0.695,2.858,1.68,3.861C545.448,775.7,546.726,776.199,548.298,776.199z"/>
</g>
<path fill="#DA1A32" d="M558.912,339.315c0,0,15.665,30.596,53.954,40.149c34.587,9.164,54.547,0.138,54.547,0.138l18.018,21.913
	c0,0,1.358-6.863-0.389-10.222c-1.855-3.567-13.426-30.346-13.426-30.346l2.098-10.366c0,0-19.07-10.002-39.333-15.279
	c-29.063-7.57-45.5-9.291-45.5-9.291l6.796,9.887C595.678,335.897,578.921,335.604,558.912,339.315z"/>
<path fill="#DA1A32" d="M197.572,502.429c-17.408-101.373,35.975-202.461,88.967-245.189
	c-66.839,26.584-92.793,70.872-128.26,147.858c0,0-1.586-163.571,164.382-215.966c-121.757,11.939-202.408,31.743-202.408,31.743
	v188.76c0.199,103.369,35.801,207.942,102.958,302.411c66.913,94.124,161.739,173.437,274.229,229.364l2.562,1.275l2.562-1.275
	c37.276-18.532,72.598-39.646,105.622-63.001C260.917,746.959,206.64,573.183,197.572,502.429z"/>
<path fill="#DA1A32" d="M545.375,180.897c117.566,22.04,126.76,86.083,126.76,86.083s-0.441-19.331-4.868-35.762
	c52.862,41.363,38.484,84.356,38.484,84.356s29.405,19.474,36.51,29.056c7.773,10.483,4.928,28.255,4.928,28.255
	s-9.34-6.182-17.924-10.269c-8.584-4.087-19.546-7.13-19.546-7.13s23.334,22.758,47.451,42.343
	c24.115,19.581,31.742,33.985,31.742,33.985c-3.41,0.525-7.432,6.9-19.492,6.9c-10.517,0-24.442-5.676-27.814-5.676
	c-8.319,0-7.787,6.033-19.244,6.033c-11.456,0-13.65-12.868-19.059-9.203c-5.409,3.665,1.561,23.32,28.465,26.91
	c20.212,2.698,23.832,13.228,23.832,17.13c0,3.901-2.715,35.486-35.099,47.427c-43.778,16.143-73.662,8.196-73.662,8.196
	c-19.29,15.836-15.05,55.217-14.296,61.096c28.476-1.152,49.048-10.293,66.676-18.171c4.005-6.421,9.734-17.102,12.224-29.037
	c0,0,8.446,6.223,7.22,20.977l-0.015,0.026c11.298-3.868,22.097-5.347,34.11-1.231c3.911-4.073,8.248-13.495,9.701-20.87
	c0,0,11.076,10.119,4.692,28.209c18.097,12.147,21.557,68.288-28.675,90.175c-2.219,1.094-3.593,1.504-3.593,1.504
	s7.435-12.213,8.165-22.938c0.729-10.725-4.645-13.295-4.645-13.295s-2.011,17.489-20.581,34.76
	c-16.932,15.748-41.544,19.274-41.544,19.274c-22.176-34.749-61.315-57.533-119.148-69.8
	c-17.108-81.899,53.381-159.451,53.381-159.451s-71.152,23.838-88.554,83.824c0,0-48.103-23.836-66.065-81.858
	c-20.069-64.826,20.398-104.601,20.398-104.601s-72.674,35.32-58.3,129.188C431.678,566.695,552.49,638.55,552.49,638.55
	c-92.702-36.014-202.408-98.266-233.013-174.39c-53.502-133.08,20.592-216.424,20.592-216.424s-81.116,50.579-84.051,173.897
	c-5.374,225.824,366.92,315.212,482.062,339.649c13.759-15.897,26.691-32.313,38.709-49.215
	c67.157-94.453,102.76-198.994,102.959-302.333V220.875C879.749,220.875,737.385,185.916,545.375,180.897z M781.162,530.154
	c0,0-4.389-5.531-9.239-9.862c-4.849-4.331-12.743-8.921-12.743-8.921c9.247-15.465,12.483-26.353,13.265-36.128
	c0-10.83,6.049-10.657,13.999-16.433c10.772-7.826,10.394-17.966,10.394-17.966C816.491,471.781,792.669,512.658,781.162,530.154z"
	/>
<g>
	<path fill="#FFFFFF" d="M458.751,27.586c14.705-0.401,29.413-0.614,44.122-0.642c0,4.784,0,9.567,0,14.351
		c-5.595,0.013-11.19,0.054-16.785,0.121c0,26.78,0,53.56,0,80.34c-4.794,0.055-9.589,0.13-14.383,0.225c0-26.78,0-53.56,0-80.34
		c-5.594,0.111-11.188,0.248-16.781,0.413C456.2,37.231,457.475,32.408,458.751,27.586z M442.224,73.985
		c-0.618-0.531-6.577-5.37-6.981-5.71c-3.688-3.131-9.77-9.003-9.769-15.186c0-7.742,3.962-10.112,7.542-10.261
		c3.924-0.165,7.848-0.317,11.772-0.455c1.268-4.828,2.536-9.655,3.804-14.481c-5.628,0.186-11.256,0.4-16.882,0.641
		c-16.388,0.723-21.592,13.958-21.592,24.091c0,12.89,8.347,20.527,13.747,25.091c0.618,0.517,6.574,5.319,6.98,5.664
		c3.687,3.114,9.77,9.029,9.77,15.216c0,7.742-3.929,10.006-7.508,10.158c-5.346,0.225-10.691,0.474-16.035,0.748
		c-1.279,4.872-2.557,9.746-3.836,14.621c7.046-0.377,14.094-0.711,21.143-1.002c16.39-0.655,21.603-13.623,21.602-23.789
		C455.979,86.434,447.626,78.593,442.224,73.985z M231.771,54.745c4.4,3.735,6.602,8.741,6.602,14.991c0,17.243,0,34.487,0,51.73
		c0,6.304-2.215,12.002-6.64,17.119c-4.425,5.12-9.755,8.194-15.984,9.249c-6.28,1.064-11.6-0.218-15.965-3.874
		c-4.364-3.654-6.545-8.595-6.545-14.848c0-17.243,0-34.487,0-51.73c0.001-6.301,2.206-12.065,6.621-17.269
		c4.414-5.201,9.711-8.339,15.889-9.385C222.028,49.663,227.37,51.012,231.771,54.745z M223.513,71.816
		c0-2.268-0.792-4.068-2.375-5.392c-1.582-1.325-3.505-1.798-5.765-1.415c-2.262,0.384-4.194,1.51-5.8,3.377
		c-1.607,1.867-2.41,3.936-2.41,6.204c0,17.294,0,34.587,0,51.881c0,2.269,0.803,4.057,2.41,5.367c1.606,1.31,3.541,1.772,5.8,1.388
		c2.26-0.384,4.183-1.499,5.765-3.35c1.583-1.851,2.375-3.909,2.375-6.179C223.513,106.403,223.513,89.109,223.513,71.816z
		 M332.736,35.124c-6.273,0.629-11.632,3.406-16.079,8.305c-4.449,4.901-6.67,10.514-6.671,16.816c0,17.243,0,34.487,0,51.73
		c0.001,6.253,2.209,11.33,6.633,15.255c4.421,3.928,9.793,5.56,16.117,4.926c6.221-0.623,11.56-3.318,16.014-8.11
		c4.454-4.79,6.683-10.323,6.682-16.627c0-3.097,0-6.193,0-9.289c-4.961,0.432-9.921,0.885-14.88,1.359c0,3.046,0,6.092,0,9.138
		c0,2.269-0.81,4.274-2.429,6.019c-1.619,1.746-3.566,2.731-5.843,2.959c-2.276,0.229-4.211-0.366-5.803-1.789
		c-1.593-1.422-2.389-3.266-2.39-5.535c0-17.294,0-34.588,0-51.881c0.001-2.269,0.797-4.294,2.39-6.073
		c1.592-1.778,3.527-2.784,5.803-3.013c2.277-0.229,4.223,0.387,5.843,1.843c1.619,1.457,2.429,3.321,2.429,5.589
		c0,2.391,0,4.781,0,7.172c4.958-0.474,9.919-0.927,14.88-1.359c0-2.29,0-4.579,0-6.869c0-6.25-2.202-11.408-6.606-15.446
		C344.422,36.206,339.059,34.49,332.736,35.124z M281.897,115.168c0,2.269-0.795,4.3-2.384,6.097
		c-1.589,1.797-3.519,2.847-5.787,3.153c-2.268,0.306-4.211-0.222-5.824-1.587c-1.614-1.365-2.419-3.18-2.42-5.449
		c0-24.378,0-48.755,0-73.133c-4.662,0.652-9.323,1.322-13.981,2.012c0,24.428,0,48.856,0,73.284c0,6.253,2.192,11.244,6.573,14.997
		c4.383,3.755,9.724,5.194,16.029,4.345c6.253-0.842,11.602-3.696,16.044-8.589c4.441-4.891,6.664-10.501,6.664-16.855
		c0-24.428,0-48.856,0-73.284c-4.974,0.603-9.945,1.228-14.915,1.874C281.897,66.413,281.897,90.791,281.897,115.168z
		 M722.502,114.176c-0.001,2.269-0.793,4.097-2.385,5.488c-1.59,1.391-3.52,1.947-5.794,1.673c-2.272-0.274-4.218-1.299-5.833-3.076
		c-1.617-1.778-2.425-3.8-2.425-6.068c0-24.378,0-48.755,0-73.133c-4.673-0.541-9.347-1.063-14.023-1.567
		c0,24.428,0,48.856,0,73.284c0,6.253,2.199,11.805,6.595,16.68c4.396,4.877,9.752,7.683,16.065,8.446
		c6.26,0.757,11.609-0.73,16.051-4.488c4.438-3.756,6.657-8.798,6.658-15.152c0-24.428,0-48.856,0-73.284
		c-4.968-0.667-9.937-1.313-14.909-1.936C722.502,65.421,722.502,89.798,722.502,114.176z M122.615,69.287
		c-6.179,1.398-11.342,4.806-15.719,10.25c-4.378,5.447-6.564,11.332-6.564,17.634c0,17.243,0,34.487,0,51.73
		c-0.001,6.202,2.174,10.996,6.527,14.404c4.352,3.41,9.527,4.424,15.756,3.014c6.129-1.386,11.05-4.66,15.441-9.999
		c4.391-5.336,6.59-11.143,6.589-17.447c0-11.255,0-22.51,0-33.765c-6.037,1.283-12.068,2.599-18.095,3.948
		c-1.257,5.063-2.513,10.128-3.769,15.194c2.624-0.593,5.25-1.181,7.877-1.762c0,6.43,0,12.86,0,19.289
		c0,2.263-0.799,4.363-2.394,6.301c-1.595,1.939-3.856,3.237-6.098,3.745c-2.242,0.508-4.146,0.15-5.716-1.078
		c-1.569-1.227-2.353-2.973-2.353-5.242c0-17.294,0-34.588,0-51.881c0-2.269,0.785-4.391,2.353-6.366
		c1.567-1.974,3.473-3.217,5.716-3.725c2.242-0.508,4.274-0.156,5.87,1.101c1.596,1.259,2.394,3.023,2.394,5.292
		c0,2.391,0,4.781,0,7.172c4.735-1.048,9.473-2.076,14.215-3.084c0-2.29,0-4.579,0-6.869c0.001-6.25-2.172-11.138-6.515-14.635
		C133.789,69.012,128.844,67.879,122.615,69.287z M401.189,44.46c1.267-4.86,2.534-9.719,3.801-14.576
		c-12.826,0.747-25.646,1.637-38.458,2.669c0,31.566,0,63.133,0,94.699c11.538-0.929,23.084-1.743,34.634-2.442
		c1.275-4.86,2.549-9.718,3.824-14.575c-8.038,0.468-16.073,0.992-24.105,1.573c0-8.609,0-17.218,0-25.827
		c6.361-0.459,12.724-0.884,19.089-1.273c0-4.783,0-9.565,0-14.348c-6.365,0.389-12.728,0.814-19.089,1.273
		c0-8.609,0-17.218,0-25.827C387.651,45.317,394.419,44.869,401.189,44.46z M546.87,41.771c1.269-4.754,2.537-9.506,3.806-14.257
		c-12.84-0.329-25.682-0.517-38.525-0.561c0,31.566,0,63.133,0,94.699c11.567,0.04,23.133,0.196,34.697,0.467
		c1.276-4.753,2.552-9.504,3.828-14.254c-8.046-0.206-16.093-0.357-24.141-0.452c0-8.609,0-17.218,0-25.827
		c6.373,0.075,12.746,0.185,19.119,0.33c0-4.783,0-9.565,0-14.348c-6.372-0.145-12.746-0.255-19.119-0.33c0-8.609,0-17.218,0-25.827
		C533.313,41.491,540.092,41.611,546.87,41.771z M598.869,78.05c3.55,15.546,7.099,31.104,10.649,46.672
		c-5.182-0.309-10.365-0.595-15.548-0.857c-3.27-13.562-6.54-27.115-9.811-40.659c-2.833-0.127-5.666-0.248-8.499-0.361
		c0,13.397,0,26.793,0,40.19c-4.795-0.192-9.591-0.364-14.387-0.517c0-31.588,0-63.175,0-94.763
		c7.562,0.24,15.123,0.53,22.682,0.869c8.016,0.36,13.899,2.869,17.652,7.461c3.298,4.014,4.945,9.457,4.945,16.313
		c0,3.021,0,6.042,0,9.063C606.553,68.169,603.991,73.687,598.869,78.05z M592.554,51.871c0-5.493-2.74-8.385-8.218-8.633
		c-2.892-0.13-5.784-0.253-8.676-0.369c0,8.542,0,17.084,0,25.626c2.892,0.116,5.784,0.239,8.676,0.369
		c2.283,0.103,4.224-0.611,5.822-2.148c1.598-1.535,2.397-3.437,2.397-5.706C592.554,57.963,592.554,54.917,592.554,51.871z
		 M671.629,83.473c3.541,15.695,7.082,31.402,10.622,47.119c-5.168-0.527-10.339-1.03-15.51-1.51
		c-3.262-13.699-6.526-27.39-9.789-41.071c-2.827-0.246-5.654-0.486-8.482-0.718c0,13.397,0,26.793,0,40.19
		c-4.786-0.393-9.573-0.767-14.361-1.121c0-31.588,0-63.175,0-94.763c7.55,0.558,15.096,1.165,22.64,1.821
		c7.999,0.697,13.868,3.452,17.612,8.202c3.291,4.153,4.933,9.664,4.932,16.52c0,3.021,0,6.042,0,9.063
		C679.293,73.914,676.739,79.325,671.629,83.473z M665.329,57.029c0.001-5.493-2.734-8.5-8.201-8.978
		c-2.886-0.252-5.772-0.496-8.659-0.734c0,8.542,0,17.084,0,25.626c2.887,0.237,5.773,0.482,8.659,0.734
		c2.279,0.199,4.214-0.434,5.809-1.904c1.593-1.468,2.391-3.336,2.392-5.605C665.329,63.121,665.329,60.075,665.329,57.029z
		 M856.196,124.715c0.351,2.046,0.527,4.285,0.527,6.715c0.001,6.026-1.129,10.905-3.388,14.646
		c-1.758,2.934-4.243,5.061-7.458,6.395c-3.617,1.507-7.213,1.916-10.782,1.228c-8.61-1.66-17.229-3.254-25.857-4.782
		c0-31.744,0-63.488,0-95.232c6.939,1.229,13.874,2.501,20.801,3.815c5.633,1.069,10.712,3.555,15.234,7.441
		c3.868,3.302,6.631,7.787,8.287,13.441c0.903,3.02,1.355,6.479,1.355,10.377c0,6.38-1.682,11.147-5.046,14.315
		c-1.408,1.337-3.063,2.245-4.973,2.725c3.167,1.844,5.853,4.792,8.061,8.836C854.413,117.362,855.493,120.723,856.196,124.715z
		 M823.733,95.198c2.294,0.426,4.586,0.857,6.878,1.293c4.427,0.842,7.394-0.754,8.901-4.815c0.552-1.512,0.829-3.456,0.829-5.837
		c0.002-3.949-0.957-7.123-2.865-9.52c-1.761-2.214-4.05-3.593-6.866-4.129c-2.292-0.436-4.585-0.867-6.878-1.293
		C823.733,78.997,823.733,87.097,823.733,95.198z M841.624,127.327c0-5.316-1.577-9.5-3.588-12.321
		c-1.809-2.579-3.903-4.1-7.424-4.769c-2.292-0.436-4.585-0.867-6.878-1.293c0,9.467,0,18.935,0,28.403
		c2.294,0.426,4.586,0.857,6.878,1.293c4.829,0.918,8.172-0.933,10.033-5.581C841.296,131.465,841.623,129.555,841.624,127.327z
		 M896.172,71.383c-3.475,10.591-6.952,21.193-10.431,31.806c-3.504-12.176-7.009-24.34-10.517-36.494
		c-5.211-1.133-10.425-2.241-15.643-3.325c6.347,19.773,12.69,39.581,19.026,59.425c0,13.29,0,26.58,0,39.87
		c4.733,1.039,9.463,2.097,14.189,3.176c0-13.29,0-26.58,0-39.869c6.353-17.004,12.699-33.973,19.039-50.904
		C906.618,73.814,901.397,72.586,896.172,71.383z M171.346,139.83c0-26.784,0-53.568,0-80.352
		c-4.727,0.928-9.451,1.876-14.172,2.844c0,31.566,0,63.133,0,94.699c10.158-2.082,20.33-4.071,30.515-5.969
		c-1.26-4.548-2.519-9.095-3.779-13.64C179.719,138.203,175.531,139.009,171.346,139.83z"/>
	<path fill="#FFFFFF" d="M773.809,47.201c-6.24-0.972-11.462,0.453-15.894,4.215c-4.434,3.764-6.65,8.809-6.65,15.11
		c0,17.243,0,34.487,0,51.73c0,6.202,2.203,11.832,6.612,16.913c4.406,5.083,9.643,8.083,15.932,9.063
		c6.19,0.965,11.149-0.423,15.571-4.08c4.423-3.655,6.632-8.62,6.633-14.924c0-11.255,0-22.51,0-33.765
		c-6.073-1.027-12.15-2.022-18.232-2.985c-1.268,4.581-2.536,9.164-3.804,13.748c2.65,0.413,5.299,0.833,7.948,1.259
		c0,6.43,0,12.86,0,19.289c-0.001,2.263-0.806,4.057-2.414,5.384c-1.611,1.327-3.89,1.758-6.154,1.406
		c-2.265-0.352-4.188-1.441-5.775-3.271c-1.586-1.829-2.377-3.877-2.379-6.146c0-17.294,0-34.588,0-51.881
		c0.001-2.269,0.792-4.09,2.379-5.463c1.587-1.372,3.51-1.884,5.775-1.531c2.263,0.352,4.313,1.483,5.925,3.353
		c1.609,1.87,2.414,3.941,2.414,6.209c0,2.391,0,4.781,0,7.172c4.775,0.767,9.547,1.554,14.318,2.361c0-2.29,0-4.579,0-6.869
		c0-6.25-2.186-11.969-6.557-17.13C785.084,51.211,780.096,48.182,773.809,47.201z"/>
</g>
<g>
</g>
<g>
</g>
<g>
</g>
<g>
</g>
<g>
</g>
<g>
</g>
</svg>
