<?xml version="1.0" encoding="utf-8"?>
<!-- Generator: Adobe Illustrator 15.1.0, SVG Export Plug-In  -->
<!DOCTYPE svg PUBLIC "-//W3C//DTD SVG 1.1//EN" "http://www.w3.org/Graphics/SVG/1.1/DTD/svg11.dtd" [
	<!ENTITY ns_flows "http://ns.adobe.com/Flows/1.0/">
]>
<svg version="1.1"
	 xmlns="http://www.w3.org/2000/svg" xmlns:xlink="http://www.w3.org/1999/xlink" xmlns:a="http://ns.adobe.com/AdobeSVGViewerExtensions/3.0/"
	 x="0px" y="0px" width="1000px" height="1000px" viewBox="0 -63.966 1000 1000"
	 overflow="visible" enable-background="new 0 -63.966 1000 1000" xml:space="preserve">
<defs>
</defs>
<path d="M74.857,725.53c-22.183-10.135-43.134-19.71-43.134-38.323c0-19.83,20.115-26.864,37.342-26.864
	c14.991,0,30.774,5.868,41.495,15.124v-25.762c-12.354-3.72-25.552-5.646-39.292-5.646c-24.117,0-44.591,6.642-56.17,18.222
	c-7.456,7.453-11.235,16.862-11.235,27.962c0,30.299,26.329,42.075,51.79,53.462c22.132,9.898,43.035,19.246,43.035,40.258
	c0,6.652-2.566,12.591-7.627,17.653c-8.841,8.84-23.233,12.797-33.575,12.797c-19.984,0-41.067-7.499-57.486-20.134l6.62,28.536
	c14.474,5.205,30.546,7.881,47.835,7.881c44.53,0,72.092-28.692,72.092-55.278C126.547,749.152,100.27,737.145,74.857,725.53z"/>
<path d="M580.582,497.501c236.511-63.376,393.164-245.66,364.609-352.233C916.656,38.771,689.822-40.833,453.313,22.541
	C216.804,85.917,60.168,268.266,88.706,374.774C117.259,481.336,344.074,560.875,580.582,497.501z"/>
<path fill="#E63027" d="M577.814,55.115c-47.938,16.487-88.925,33.115-137.457,63.723
	c-100.825,59.613-173.957,139.393-177.116,210.549c-10.363,68.947,62.17,130.447,154.425,131.751
	c-116.385,27.249-207.259-13.806-244.161-71.556c-24.066-45.85-8.037-113.597,52.099-176.37
	C292.531,139.169,415.65,77.249,519.701,60.406C540.11,57.298,560.299,54.736,577.814,55.115z"/>
<path fill="#E63027" d="M631.25,91.92c-0.347,31.8,5.813,60.867,10.752,90.725l147.32-17.419
	c-45.004,26.67-98.529,49.97-144.079,77.978c-0.21,33.688,5.808,65.315,6.541,98.881c-37.601-13.647-68.959-33.804-105.337-48.241
	c-53.251,22.632-105.577,54.039-157.478,77.77c25.533-36.263,62.168-73.302,88.922-110.357
	c-27.304-16.858-59.085-29.339-87.611-45.409c45.637-8.329,93.16-12.453,140.825-19.135l8.539-5.529l88.099-103.9L631.25,91.92z"/>
<path d="M172.274,777.015l-10.749,29.143c-4.34,11.574-5.786,17.567,4.134,21.288v0.621h-38.03v-0.621
	c11.989-5.994,15.501-17.567,20.05-29.349l34.516-86.188c2.894-7.442,6.82-16.122-3.102-19.222v-0.621h32.657l42.992,106.03
	c4.753,11.781,8.474,23.354,20.254,29.349v0.621h-42.371v-0.621c10.128-4.546,8.473-6.82,2.894-21.288l-11.16-29.143H172.274z
	 M198.109,709.635l-20.461,52.085h40.717L198.109,709.635z"/>
<path d="M332.673,692.067c27.695,0,42.783,14.468,42.783,33.276c0,18.189-15.915,32.45-32.864,36.377l29.763,37.41
	c8.681,10.748,21.703,21.495,33.483,28.937h-19.016c-10.954,0-17.774-2.686-23.975-10.335l-25.215-31.209l-19.016-29.145
	c16.534-2.479,35.757-10.126,35.757-29.554c0-14.882-12.814-23.562-26.662-22.943c-4.753,0.207-9.302,0.827-14.056,1.653v92.596
	c0,9.507-1.24,24.595,9.303,28.315v0.621H283.48v-0.621c10.542-3.721,9.095-19.016,9.095-28.315v-77.92
	c0-9.509,1.448-24.598-9.095-28.522v-0.621H332.673z"/>
<path d="M432.678,777.015l-10.747,29.143c-4.34,11.574-5.788,17.567,4.134,21.288v0.621h-38.03v-0.621
	c11.988-5.994,15.5-17.567,20.048-29.349L442.6,711.91c2.893-7.442,6.82-16.122-3.101-19.222v-0.621h32.658l42.99,106.03
	c4.755,11.781,8.475,23.354,20.252,29.349v0.621h-42.369v-0.621c10.129-4.546,8.476-6.82,2.893-21.288l-11.16-29.143H432.678z
	 M458.515,709.635l-20.463,52.085h40.719L458.515,709.635z"/>
<path d="M633.588,717.696c-11.366-7.234-24.598-11.78-38.238-11.78c-28.521,0-48.363,20.875-48.363,50.844
	c0,30.383,20.667,57.46,52.498,57.46c15.504,0,31.001-5.582,44.025-13.021h0.617l-10.539,23.976c-9.713,4.547-20.459,6.2-31.208,6.2
	c-48.778,0-78.952-27.283-78.952-71.514c0-42.783,30.174-71.099,72.543-71.099c12.609,0,25.426,2.272,37.617,5.166V717.696z"/>
<path d="M682.348,810.704l26.251,2.482c13.642,1.238,27.903-3.102,38.239-12.195h0.617l-9.3,27.076h-86.188v-0.621
	c10.539-3.721,9.301-19.016,9.301-28.315v-77.92c0-9.509,1.238-24.598-9.301-28.522v-0.621h66.139c3.513,0,7.029,0.414,9.718-1.033
	h0.617v24.184h-0.617c-6.412-7.441-14.884-8.269-24.391-8.269c-7.233,0-14.469,0.206-21.085,1.447v38.443h24.598
	c3.31,0,6.616,0,9.093-1.239h0.621v21.907h-0.621c-3.306-5.994-11.988-5.787-18.396-5.787h-15.295V810.704z"/>
<path d="M783.384,801.198c0,11.573-0.206,19.842,10.747,26.248v0.621h-36.582v-0.621c10.957-6.406,10.957-14.675,10.957-26.248
	V718.73c0-11.575,0-19.843-10.75-26.042v-0.621h30.175v0.207c0.827,2.481,1.652,3.514,3.102,5.168l2.892,4.132l75.648,95.49V718.73
	c0-11.575,0.208-19.843-10.749-26.042v-0.621h36.379v0.621c-10.749,6.199-10.749,14.467-10.749,26.042v115.95
	c-14.673-4.96-21.081-11.78-30.178-23.562l-70.892-89.907V801.198z"/>
<path d="M988.016,716.663c-8.062-8.267-20.878-13.021-32.453-13.021c-11.78,0-26.66,4.548-26.66,18.808
	c0,28.317,71.098,27.903,71.098,66.139c0,22.115-23.146,42.785-55.39,42.785c-12.605,0-25.219-1.86-36.999-6.2l-5.994-25.836
	c12.198,10.541,29.146,17.154,45.265,17.154c11.784,0,29.556-7.025,29.556-21.495c0-32.244-71.098-26.456-71.098-70.272
	c0-26.043,26.665-35.963,51.88-35.963c10.331,0,20.87,1.446,30.796,4.546V716.663z"/>
<path d="M175.197,660.799h817.245l0,0c2.398,0,4.344-1.945,4.344-4.346c0-2.399-1.945-4.344-4.344-4.344l0,0H175.197l0,0
	c-2.399,0-4.345,1.944-4.345,4.344C170.852,658.854,172.797,660.799,175.197,660.799L175.197,660.799z"/>
<path d="M10.405,872.067h982.037l0,0c2.398,0,4.344-1.944,4.344-4.345s-1.945-4.345-4.344-4.345l0,0H10.405l0,0
	c-2.399,0-4.345,1.944-4.345,4.345S8.005,872.067,10.405,872.067L10.405,872.067z"/>
</svg>
