<?xml version="1.0" encoding="utf-8"?>
<!-- Generator: Adobe Illustrator 16.0.4, SVG Export Plug-In . SVG Version: 6.00 Build 0)  -->
<!DOCTYPE svg PUBLIC "-//W3C//DTD SVG 1.1//EN" "http://www.w3.org/Graphics/SVG/1.1/DTD/svg11.dtd">
<svg version="1.1" id="Layer_1" xmlns="http://www.w3.org/2000/svg" xmlns:xlink="http://www.w3.org/1999/xlink" x="0px" y="0px"
	 width="1000px" height="1000px" viewBox="0 0 1000 1000" enable-background="new 0 0 1000 1000" xml:space="preserve">
<g>
	<g>
		<path fill="#AC162C" d="M892.732,104.294c-30.036-15.59-91.176-46.626-175.326-70.848c-3.509-1.01-7.071-2.005-10.661-2.989
			l6.791,6.833c0.911,0.917,64.777,94.274-97.096,337.867c1.375,1.168,2.743,2.336,4.065,3.514
			c52.589,46.662,64.768,98.027,76.571,109.003c41.17,38.159,82.739,58.474,93.174,91.032c3.17,9.34-3.667,14.675-10.322,15.456
			h0.006c-0.946,0.112-1.893,0.142-2.808,0.067c-0.024-0.006-0.047-0.006-0.069-0.016c-0.901-0.074-1.765-0.24-2.567-0.509
			l0.044,0.765c0.067,1.128,0.112,2.457,0.112,3.929c0,10.008-2.142,26.829-15.267,34.373c0.031,0.33,0.054,0.659,0.083,0.991
			c0.045,0.601,0.09,1.208,0.121,1.819c0.022,0.554,0.022,1.119,0.029,1.682c0-0.016,0-0.038,0-0.054
			c0.029,2.014-0.022,4.059-0.217,6.153c-2.465,14.705-19.855,28.047-42.689,23.674c-7.752,11.697-29.509,30.074-61.011,33.267
			c-0.135-0.37,8.331-17.942,8.331-17.942s2.879-6.454,10.587-26.159c-0.249,0-10.3,12.432-45.971,22.028
			c0,0,12.134-23.697,12.419-43.373c-0.338-0.083-4.658,2.389-27.61,9.347c5.883-8.589,10.435-19.001,13.034-32.005
			c22.217,22.77,35.026,32.756,75.62,49.328c-90.012-36.279-82.403-123.849-146.081-116.193
			c-68.886,8.369-85.745,172.142,40.006,243.971c-26.279-17-44.461-40.147-56.692-63.288c14.305-1.954,25.544-11.147,26.101-11.042
			c2.637,2.651-0.662,24.663-1.3,34.221c19.931-8.046,27.641-21.066,28.015-20.983c0.55,22.92,0.4,23.957,1.879,42.002
			c13.793-13.874,26.009-27.654,26.009-27.654l0.585-0.052c3.631,34.633,3.059,33.709,2.253,47.535
			c-0.096,1.749-0.247,2.922-0.419,3.68c1.442,0.217,3.208,0.625,5.244,1.429c15.222,5.936,15.996,42.679-61.447,36.768
			c-62.958-4.772-119.748-40.313-172.391-80.56c-1.668-1.278-3.321-2.548-4.98-3.826c-5.815,32.111-6.192,63.146-1.03,92.988
			c12.531,72.498,54.708,119.943,82.903,144.397c9.535,5.115,19.264,10.148,29.24,15.078
			C1073.14,717.276,892.732,104.294,892.732,104.294z"/>
	</g>
	<path fill="#044437" d="M779.934,594.163c-0.946,0.112-1.893,0.142-2.808,0.067c-0.024-0.006-0.047-0.006-0.069-0.016
		c-0.924-0.074-1.81-0.24-2.637-0.518c-19.036-6.477-20.81-23.286-27.549-23.553c-0.451-0.016-0.918,0.042-1.413,0.182
		c-2.036,0.559-3.575,1.276-4.693,2.139c-0.039,0.032-0.085,0.054-0.122,0.083c-0.332,0.26-0.607,0.538-0.863,0.828
		c-0.038,0.044-0.092,0.085-0.128,0.134c-0.24,0.283-0.437,0.585-0.61,0.895c-0.029,0.06-0.074,0.112-0.105,0.172
		c-0.157,0.307-0.276,0.639-0.384,0.969c-0.014,0.067-0.045,0.128-0.067,0.195c-0.089,0.345-0.141,0.699-0.172,1.067
		c-0.006,0.067-0.022,0.134-0.029,0.202c-0.022,0.377-0.016,0.76,0.016,1.157c0.007,0.076,0.007,0.144,0.007,0.218
		c0.038,0.405,0.105,0.82,0.188,1.249c0.013,0.074,0.029,0.142,0.044,0.218c0.096,0.442,0.218,0.901,0.353,1.368
		c0.022,0.059,0.038,0.128,0.06,0.187c0.15,0.489,0.332,0.991,0.527,1.502c0.013,0.045,0.029,0.099,0.052,0.144
		c0.21,0.541,0.435,1.09,0.691,1.659c0.008,0.016,0.016,0.039,0.022,0.054c2.045,4.582,5.396,10.112,8.739,16.483
		c0.067,0.134,0.134,0.262,0.202,0.399c0.345,0.653,0.684,1.314,1.022,1.982c0.119,0.25,0.247,0.496,0.368,0.745
		c0.301,0.595,0.595,1.202,0.886,1.81c0.15,0.323,0.31,0.639,0.458,0.962c0.271,0.572,0.526,1.15,0.789,1.729
		c0.166,0.375,0.338,0.735,0.496,1.11c0.242,0.549,0.475,1.112,0.706,1.675c0.172,0.422,0.354,0.827,0.521,1.25
		c0.208,0.54,0.413,1.087,0.614,1.637c0.173,0.458,0.354,0.901,0.521,1.368c0.218,0.615,0.419,1.247,0.63,1.877
		c0.285,0.865,0.556,1.735,0.812,2.615c0.157,0.562,0.329,1.112,0.479,1.684c0.144,0.541,0.263,1.088,0.399,1.637
		c0.127,0.534,0.262,1.059,0.374,1.602c0.122,0.554,0.218,1.119,0.323,1.682c0.099,0.549,0.211,1.09,0.3,1.653
		c0.089,0.549,0.151,1.119,0.227,1.675c0.074,0.579,0.156,1.157,0.217,1.742c0.061,0.557,0.09,1.12,0.135,1.685
		c0.045,0.601,0.09,1.208,0.121,1.819c0.022,0.554,0.022,1.119,0.029,1.682c0.009,0.495,0.029,0.978,0.029,1.473
		c0.294-0.121,0.588-0.195,0.888-0.347c19.18-9.578,20.03-33.8,19.449-44.227C779.966,594.163,779.95,594.163,779.934,594.163z"/>
	<path fill="#044437" d="M553.235,372.074l0.271-1.697c-183-71.462-270.062,136.028-155.502,296.661l0.745-0.668
		C366.006,597.001,363.55,358.648,553.235,372.074z"/>
	<path fill="#044437" d="M620.678,469.809l-0.031-0.083l0.534,0.639c0,0,0,0,0.016,0l10.149,12.365
		c1.519,5.763-6.214,7.461-6.214,7.461l-4.334-19.811c-21.591-0.204-29.743,12.516-40.749,11.915
		c-0.067,1.659-0.045,1.112-0.249,3.276c22.329,4.268,30.743,35.355,51.546,35.355c0.15-0.524,0.15-0.79,0.15-0.79
		s-4.146-11.495-0.969-16.875c5.477-3.041,8.468-9.811,9.827-14.092c9.625,7.272,26.174,8.97,33.837,5.205
		c0.527-0.607,0.204-0.15,0.594-0.668c-18.925-14.906-56.527-125.127-174.75-83.91c0.3,1.074,0.136,0.518,0.406,1.525
		C568.336,413.455,598.666,445.798,620.678,469.809z"/>
	<path fill="#044437" d="M501.855,730.754c0.383-0.406,0.316-0.323,0.735-0.774c-16.146-26.513-46.173-155.457,38.714-227.52
		c-0.639-0.962-0.255-0.422-0.953-1.397C418.191,536.149,464.297,707.095,501.855,730.754z"/>
	<g>
		<path fill="#044437" d="M739.72,647.445c-54.619-4.907-84.677-84.814-125.105-97.3
			C622.495,556.027,682.816,664.941,739.72,647.445z"/>
	</g>
	<path fill="#044437" d="M717.406,33.447C656.123,15.807,582.655,1.78,499.998,0c-196.157,4.223-340.821,77.353-392.73,104.294
		c0,0-180.408,612.981,392.73,895.706c0,0-135.277-79.494-106.149-248.653c-28.218-21.578-55.242-44.492-81.378-64.754
		c-0.238-0.18-0.478-0.368-0.718-0.554c-1.247-0.962-2.487-1.917-3.733-2.87c-0.684-0.527-1.373-1.052-2.059-1.57
		c-1.119-0.856-2.231-1.7-3.35-2.541c-0.812-0.607-1.624-1.218-2.436-1.825c-1.045-0.78-2.081-1.547-3.122-2.314
		c-0.886-0.659-1.774-1.307-2.655-1.953c-1-0.729-1.992-1.449-2.987-2.171c-0.94-0.677-1.875-1.336-2.81-2.005
		c-0.935-0.67-1.875-1.339-2.812-2c-1.072-0.751-2.142-1.486-3.214-2.222c-0.801-0.557-1.608-1.122-2.409-1.669
		c-1.809-1.233-3.617-2.442-5.42-3.628c-0.686-0.451-1.375-0.888-2.061-1.339c-1.179-0.764-2.359-1.531-3.532-2.276
		c-0.803-0.502-1.599-0.991-2.397-1.494c-1.064-0.661-2.139-1.323-3.207-1.969c-0.812-0.495-1.626-0.984-2.442-1.464
		c-1.056-0.624-2.11-1.247-3.167-1.857c-0.805-0.466-1.612-0.923-2.416-1.375c-1.074-0.608-2.148-1.202-3.222-1.78
		c-0.774-0.429-1.55-0.85-2.323-1.263c-1.142-0.601-2.277-1.186-3.412-1.765c-0.704-0.361-1.408-0.729-2.11-1.074
		c-1.453-0.722-2.906-1.419-4.357-2.097c-0.377-0.173-0.751-0.361-1.119-0.534c-1.814-0.834-3.622-1.63-5.431-2.388
		c-0.572-0.249-1.144-0.466-1.714-0.7c-1.251-0.511-2.503-1.02-3.747-1.494c-0.697-0.264-1.393-0.511-2.088-0.767
		c-1.123-0.413-2.249-0.812-3.369-1.195c-0.737-0.247-1.469-0.48-2.202-0.72c-1.09-0.348-2.18-0.684-3.267-1
		c-0.738-0.217-1.474-0.428-2.209-0.632c-1.112-0.308-2.218-0.585-3.325-0.855c-0.698-0.172-1.397-0.354-2.095-0.511
		c-1.206-0.271-2.413-0.511-3.619-0.745c-0.592-0.112-1.187-0.247-1.781-0.352c-1.79-0.316-3.583-0.595-5.366-0.812
		c118.18-21.457,240.96,205.626,403.191,183.614c-225.775-40.156-185.034-335.171-52.438-354.915c0-1.346,0-0.707,0.044-1.55
		C432.676,426.295,351.297,577.633,462.667,747.2c-0.399,0.323-0.902,0.825-0.902,0.825s-99.064-62.153-123.158-152.098l-0.767-0.15
		c0,0-3.597,15.763-1.292,40.93c-0.419,0.173-0.825,0.105-0.825,0.105s-76.517-181.15,34.499-288.833
		c0,0-140.704,49.712-101.831,227.737c-4.346-5.012-10.979-19.075-14.617-34.866c0,0-8.79,25.056-3.021,65.497
		c-0.753,0.099-0.668,0.067-1.313,0.121c-70.899-168.131,55.746-261.622,111.293-287.067c29.448,22.118,58.088,18.729,58.088,18.729
		c-38.307-1.938-60.846-41.208-60.846-41.208c-18.992-29.3-39.594-33.808-39.594-33.808s-0.348-0.224-0.781-0.435
		c-0.101-0.045-0.177-0.105-0.273-0.157l22.887-1.834c62.416-0.112,92.77,26.332,106.84,45.873
		c54.042,4.081,97.172,22.028,131.332,41.818c2.496,1.446,4.916,2.915,7.295,4.396c0.73,0.458,1.451,0.915,2.164,1.375
		c1.698,1.074,3.359,2.155,4.996,3.245c0.723,0.484,1.458,0.969,2.173,1.453c2.11,1.44,4.185,2.886,6.196,4.346
		c0.693,0.504,1.353,1.007,2.037,1.512c1.361,1.009,2.713,2.021,4.027,3.034c0.931,0.713,1.841,1.435,2.749,2.148
		c1.029,0.823,2.043,1.646,3.05,2.469c0.927,0.763,1.863,1.518,2.774,2.281c1.577,1.336,3.133,2.682,4.649,4.025
		C775.113,145.565,727.653,43.751,717.406,33.447z"/>
	<g>
		<path fill="#044437" d="M749.907,641.026c-56.04-20.532-60.825-81.385-107.826-98.275c-0.112,0.406-0.097,0.37-0.247,0.67
			C652.488,550.128,695.333,646.384,749.907,641.026z"/>
	</g>
	<g>
		<path fill="#FFFFFF" d="M790.25,578.707c-10.435-32.559-52.004-52.874-93.174-91.032
			c-14.462-13.448-29.451-87.525-118.689-139.295c-34.16-19.79-77.29-37.737-131.332-41.818
			c-14.07-19.542-44.424-45.985-106.84-45.873l-22.887,1.834c0.097,0.052,0.173,0.112,0.273,0.157
			c0.433,0.211,0.781,0.435,0.781,0.435s20.602,4.507,39.594,33.808c0,0,22.54,39.271,60.846,41.208c0,0-28.64,3.388-58.088-18.729
			c0.157,0.345,0.051-0.022,0,0c-55.547,25.445-182.192,118.936-111.293,287.067c0.646-0.053,0.561-0.022,1.313-0.121
			c-5.77-40.441,3.021-65.497,3.021-65.497c3.638,15.792,10.271,29.854,14.617,34.866
			C229.518,397.692,370.222,347.98,370.222,347.98c-111.016,107.683-34.499,288.833-34.499,288.833s0.406,0.067,0.825-0.105
			c-2.305-25.167,1.292-40.93,1.292-40.93l0.767,0.15c24.094,89.944,123.158,152.098,123.158,152.098s0.502-0.502,0.902-0.825
			c-111.37-169.567-29.991-320.905,86.901-293.237c-0.044,0.843-0.044,0.204-0.044,1.55
			c-132.595,19.743-173.337,314.758,52.438,354.915C439.731,832.44,316.951,605.357,198.771,626.814
			c105.898,13.17,219.698,193.914,367.484,205.108c77.443,5.911,76.669-30.833,61.447-36.768c-2.036-0.803-3.801-1.211-5.244-1.429
			c0.173-0.758,0.323-1.931,0.419-3.68c0.805-13.825,1.377-12.901-2.253-47.535l-0.585,0.052c0,0-12.216,13.78-26.009,27.654
			c-1.479-18.045-1.329-19.082-1.879-42.002c-0.374-0.083-8.083,12.937-28.015,20.983c0.638-9.558,3.938-31.57,1.3-34.221
			c-0.556-0.105-11.795,9.089-26.101,11.042c12.231,23.14,30.413,46.287,56.692,63.288
			c-125.75-71.83-108.892-235.602-40.006-243.971c63.678-7.655,56.069,79.914,146.081,116.193
			c-40.594-16.572-53.403-26.558-75.62-49.328c-2.599,13.004-7.151,23.416-13.034,32.005c22.952-6.958,27.272-9.43,27.61-9.347
			c-0.285,19.676-12.419,43.373-12.419,43.373c35.671-9.596,45.722-22.028,45.971-22.028c-7.708,19.705-10.587,26.159-10.587,26.159
			s-8.465,17.572-8.331,17.942c31.502-3.193,53.259-21.57,61.011-33.267c22.833,4.373,40.224-8.97,42.689-23.674
			c3.787-40.329-37.235-66.623-13.96-73.039c8.017-2.218,8.672,16.467,28.984,23.372
			C781.762,596.183,794.345,590.758,790.25,578.707z M502.59,729.98c-0.419,0.451-0.352,0.368-0.735,0.774
			c-37.558-23.659-83.664-194.604,38.497-229.691c0.697,0.976,0.313,0.436,0.953,1.397
			C456.417,574.523,486.444,703.467,502.59,729.98z M398.749,666.369l-0.745,0.668c-114.561-160.633-27.498-368.123,155.502-296.661
			l-0.271,1.697C363.55,358.648,366.006,597.001,398.749,666.369z M579.8,485.571c0.204-2.164,0.182-1.617,0.249-3.276
			c11.006,0.601,19.157-12.119,40.749-11.915l4.334,19.811c0,0,7.732-1.698,6.214-7.461l-10.149-12.365c-0.016,0-0.016,0-0.016,0
			l-0.534-0.639l0.031,0.083c-22.012-24.01-52.342-56.354-120.236-58.486c-0.27-1.007-0.105-0.451-0.406-1.525
			c118.223-41.217,155.825,69.004,174.75,83.91c-0.391,0.518-0.067,0.061-0.594,0.668c-7.663,3.765-24.212,2.067-33.837-5.205
			c-1.359,4.281-4.35,11.051-9.827,14.092c-3.177,5.379,0.969,16.875,0.969,16.875s0,0.265-0.15,0.79
			C610.542,520.927,602.128,489.839,579.8,485.571z M614.614,550.145c40.428,12.486,70.487,92.394,125.105,97.3
			C682.816,664.941,622.495,556.027,614.614,550.145z M749.907,641.026c-54.573,5.357-97.419-90.898-108.072-97.605
			c0.15-0.3,0.134-0.264,0.247-0.67C689.082,559.642,693.867,620.494,749.907,641.026z"/>
		<g>
			<path fill="#FFFFFF" d="M458.534,938.273v-17.218l-6.01,1.848l-0.592-2.736l7.429-3.433h3.178v21.54H458.534z"/>
			<path fill="#FFFFFF" d="M483.861,938.732c-6.492,0-10.165-3.059-10.165-8.233c0-4.217,3.004-6.388,5.341-7.431v-0.031
				c-2.471-1.531-4.086-3.507-4.086-6.754c0-4.401,3.517-7.864,9.616-7.864c6.348,0,8.902,4.131,8.902,7.647
				c0,3.862-3.11,6.115-4.484,6.921v0.051c3.357,1.211,5.476,3.6,5.476,7.273C494.461,935.089,490.465,938.732,483.861,938.732z
				 M482.681,924.601c-1.796,0.54-4.853,2.487-4.853,5.681c0,3.494,2.839,5.242,6.294,5.242c3.231,0,6.115-1.832,6.115-4.974
				C490.238,926.938,486.543,925.186,482.681,924.601z M485.386,921.775c1.614-0.954,3.9-2.651,3.9-5.493
				c0-2.417-1.835-4.702-5.073-4.702c-3.057,0-5.212,1.879-5.212,4.434C479.001,919.761,482.275,921.056,485.386,921.775z"/>
			<path fill="#FFFFFF" d="M511.365,938.732c-6.468,0-10.165-3.059-10.165-8.233c0-4.217,3.007-6.388,5.357-7.431v-0.031
				c-2.471-1.531-4.102-3.507-4.102-6.754c0-4.401,3.517-7.864,9.632-7.864c6.333,0,8.903,4.131,8.903,7.647
				c0,3.862-3.111,6.115-4.501,6.921v0.051c3.373,1.211,5.478,3.6,5.478,7.273C521.967,935.089,517.969,938.732,511.365,938.732z
				 M510.201,924.601c-1.796,0.54-4.853,2.487-4.853,5.681c0,3.494,2.823,5.242,6.288,5.242c3.239,0,6.115-1.832,6.115-4.974
				C517.751,926.938,514.07,925.186,510.201,924.601z M512.89,921.775c1.63-0.954,3.915-2.651,3.915-5.493
				c0-2.417-1.848-4.702-5.072-4.702c-3.057,0-5.228,1.879-5.228,4.434C506.505,919.761,509.804,921.056,512.89,921.775z"/>
			<path fill="#FFFFFF" d="M529.292,927.576c0-6.604,3.884-11.156,9.759-11.156c5.898,0,9.715,4.552,9.715,11.156
				c0,6.551-3.9,11.103-9.798,11.103C533.041,938.679,529.292,934.193,529.292,927.576z M539.02,919.71
				c-3.68,0-5.492,3.094-5.492,7.693c0,4.709,1.984,7.948,5.629,7.948c3.628,0,5.393-3.193,5.393-7.775
				C544.55,922.804,542.513,919.71,539.02,919.71z"/>
		</g>
		<g>
			<path fill="#FFFFFF" d="M145.861,197.024l-13.637-38.105l10.226-3.68l11.291,31.59l17.456-6.234l2.326,6.535L145.861,197.024z"/>
			<path fill="#FFFFFF" d="M186.318,182.93l-11.939-38.683l29.157-9l-0.724,7.423l-15.953,4.92l2.788,9.046l16.031-4.958
				l2.052,6.634l-16.025,4.958l3.05,9.865l18.617-5.748l2.037,6.551L186.318,182.93z"/>
			<path fill="#FFFFFF" d="M230.527,169.791l-10.538-39.098l10.571-2.839l10.517,39.083L230.527,169.791z"/>
			<path fill="#FFFFFF" d="M282.498,157.605c-16.761,3.75-28.245-2.938-30.75-14.079c-2.529-11.338,6.454-23.05,24.011-26.964
				c5.209-1.179,10.217-1.479,13.86-0.923l1.48,7.355c-4.965-1.023-9.41-0.79-13.466,0.119
				c-12.091,2.705-15.919,10.367-14.393,17.204c1.68,7.558,9.325,12.067,19.46,9.812c4.754-1.074,8.583-3.005,12.162-5.56
				l4.186,5.108C293.687,153.894,288.26,156.298,282.498,157.605z"/>
			<path fill="#FFFFFF" d="M314.262,150.467l-6.831-39.923l30.072-5.138l-1.669,7.272l-16.457,2.81l1.597,9.337l16.529-2.839
				l1.179,6.858l-16.54,2.819l1.735,10.163l19.207-3.274l1.157,6.777L314.262,150.467z"/>
			<path fill="#FFFFFF" d="M374.151,141.919c-7.528,0.923-13.154-0.31-17.115-1.737l3.456-6.552c3.456,1.24,7.604,2.218,12.352,1.63
				c3.801-0.473,7.957-2.081,7.573-5.138c-0.655-5.297-13.44-4.657-20.465-9.429c-2.2-1.532-3.833-3.613-4.207-6.723
				c-0.736-6.102,4.853-12.247,16.341-13.644c5.559-0.684,10.284-0.166,13.455,0.812l0.742,7.219
				c-4.671-1.276-8.533-1.931-12.816-1.39c-3.877,0.466-6.723,2.18-6.438,4.5c0.857,6.958,23.208,3.577,24.762,16.213
				C392.685,134.992,384.857,140.589,374.151,141.919z"/>
			<path fill="#FFFFFF" d="M442.247,101.356l-14.094,1.022l2.427,33.505l-10.998,0.82l-2.436-33.539l-15.356,1.128l-0.502-6.876
				l42.928-3.102L442.247,101.356z"/>
			<path fill="#FFFFFF" d="M460.045,134.254l-0.955-40.463l30.496-0.721l-2.72,6.941l-16.687,0.399l0.233,9.443l16.754-0.383
				l0.188,6.943l-16.792,0.397l0.255,10.315l19.474-0.466l0.166,6.891L460.045,134.254z"/>
			<path fill="#FFFFFF" d="M534.228,134.254c-7.708-10.719-10.782-15.341-12.682-15.949l-4.088-0.099l-0.384,15.59l-10.952-0.285
				l1.074-40.457l15.303,0.383c14.064,0.375,19.023,5.853,18.873,12.119c-0.15,5.274-4.958,8.721-9.865,10.246v0.067
				c2.608,1.227,7.543,8.183,15.191,18.701L534.228,134.254z M522.566,100.446l-4.635-0.119l-0.301,11.728l4.622,0.119
				c4.635,0.121,8.151-2.487,8.234-5.981C530.583,103.054,527.758,100.583,522.566,100.446z"/>
			<path fill="#FFFFFF" d="M626.628,107.839l-14.063-1.479l-3.532,33.424l-10.968-1.164l3.545-33.418l-15.341-1.614l0.722-6.838
				l42.808,4.523L626.628,107.839z"/>
			<path fill="#FFFFFF" d="M638.184,143.48l5.866-40.072l10.82,1.593l-5.862,40.057L638.184,143.48z"/>
			<path fill="#FFFFFF" d="M690.36,152.849c-16.386-3.155-24.471-13.973-22.313-25.129c2.231-11.578,15.673-18.416,33.335-15.027
				c6.739,1.316,11.17,3.097,15.123,4.996l-1.601,7.438c-3.913-2.502-8.315-4.485-13.493-5.476
				c-13.726-2.653-20.225,2.727-21.568,9.728c-1.48,7.649,3.795,15.312,14.545,17.377c2.996,0.572,5.799,0.736,7.782,0.504
				l2.57-13.329l10.75,2.09l-3.29,17C706.355,154.194,698.91,154.517,690.36,152.849z"/>
			<path fill="#FFFFFF" d="M728.097,160.25l9.797-39.285l29.601,7.394l-4.449,5.979l-16.198-4.035l-2.283,9.159l16.258,4.08
				l-1.678,6.738l-16.265-4.079l-2.5,10.031l18.902,4.718l-1.669,6.671L728.097,160.25z"/>
			<path fill="#FFFFFF" d="M799.604,179.873c-4.606-12.367-6.349-17.648-8.03-18.738l-3.9-1.17l-4.5,14.935l-10.486-3.178
				l11.726-38.744l14.673,4.434c13.456,4.085,16.799,10.667,14.989,16.671c-1.534,5.055-7.078,7.09-12.217,7.272l-0.013,0.067
				c2.177,1.886,5.108,9.878,9.69,22.042L799.604,179.873z M797.29,144.179l-4.425-1.323l-3.411,11.227l4.44,1.343
				c4.434,1.346,8.506-0.255,9.513-3.613C804.331,148.821,802.263,145.697,797.29,144.179z"/>
			<path fill="#FFFFFF" d="M837.34,193.209c-7.173-2.48-11.688-6.048-14.596-9.084l5.98-4.357c2.555,2.637,5.844,5.326,10.368,6.911
				c3.628,1.24,8.062,1.608,9.075-1.299c1.743-5.041-10.037-10.098-14.25-17.475c-1.307-2.33-1.848-4.922-0.818-7.88
				c2.011-5.808,9.743-8.852,20.696-5.073c5.274,1.834,9.295,4.389,11.712,6.658l-2.522,6.797c-3.615-3.207-6.808-5.477-10.888-6.88
				c-3.695-1.278-7.01-0.994-7.761,1.209c-2.305,6.62,19.272,13.418,15.124,25.454C857.041,195.147,847.528,196.739,837.34,193.209z
				"/>
		</g>
	</g>
</g>
<g>
</g>
<g>
</g>
<g>
</g>
<g>
</g>
<g>
</g>
<g>
</g>
</svg>
