<?xml version="1.0" encoding="utf-8"?>
<!-- Generator: Adobe Illustrator 15.1.0, SVG Export Plug-In  -->
<!DOCTYPE svg PUBLIC "-//W3C//DTD SVG 1.1//EN" "http://www.w3.org/Graphics/SVG/1.1/DTD/svg11.dtd" [
	<!ENTITY ns_flows "http://ns.adobe.com/Flows/1.0/">
]>
<svg version="1.1"
	 xmlns="http://www.w3.org/2000/svg" xmlns:xlink="http://www.w3.org/1999/xlink" xmlns:a="http://ns.adobe.com/AdobeSVGViewerExtensions/3.0/"
	 x="0px" y="0px" width="1000px" height="1000px" viewBox="-125.62 0 1000 1000"
	 overflow="visible" enable-background="new -125.62 0 1000 1000" xml:space="preserve">
<defs>
</defs>
<path fill-rule="evenodd" clip-rule="evenodd" fill="#00000A" d="M748.653,99.851C748.76-15.134,569.14-9.973,427.621,13.83
	C206.985,50.964,0.792,160.128,0,182.739l0.073-0.703C21.83,501.172,67.088,705.371,381.825,858.841
	c285.071-139.694,358.078-438.832,366.935-758.64"/>
<path fill-rule="evenodd" clip-rule="evenodd" fill="#1C9AD6" d="M593.546,165.511c-14,3.097-22.178,8.292-25.06,23.913
	c-1.214,20.495,0.903,42.394,3.712,67.133c0.476,12.383,0.54,24.509-2.369,36.062c-2.984,22.439-12.15,38.635-21.647,52.943
	c-13.221,18.974-28.039,31.602-43.805,39.891c-26.171,13.99-40.658,24.961-47.392,34.084c-15.182,18.509-22.006,48.825-24.07,71.777
	c4.776,12.354,9.578,24.718,14.343,37.065c9.584,22.595,19.161,45.194,28.734,67.794c1.946,3.866,3.353,7.059,5.251,10.198
	c4.68,7.728,15.915,19.669,24.027,22.964c13.295,4.845,27.161,7.39,41.407,8.336c-13.93,1.664-28.84,0.878-44.733-2.331
	c-16.76-4.197-34.061-20.081-37.028-26.509c-15.476-38.958-31.557-78.228-47.039-117.186c1.99-22.76,5.188-44.691,15.921-62.58
	c1.792-3.572,4.674-6.655,6.466-10.211c-23.782,17.081-33.627,46.224-41.691,75.101c5.896,14.696,13.08,28.739,18.979,43.451
	c4.674,12.006,9.342,24.027,14.016,36.06c17.295,39.798,24.375,57.189,66.463,65.109c-30.307,0.626-56.879-2.728-68.431-33.52
	c-13.589-32.274-26.854-64.768-40.429-97.047c-1.564-4.117-4.875-10.882-6.447-14.994c7.292-23.947,15.501-51.831,33.11-70.208
	c14.295-13.416,28.91-24.852,48.473-32.122c11.846-4.962,25.274-13.241,41.407-22.591c9.515-8.297,17.846-15.38,26.777-27.386
	c6.417-10.038,13.812-21.292,18.973-36.41c4.3-11.588,6.278-24.34,6.338-38.068c-0.893-16.353-1.771-32.717-2.679-49.082
	c0.192-16.621,3.999-24.664,10.026-34.608C574.604,169.634,584.075,163.952,593.546,165.511z"/>
<path fill-rule="evenodd" clip-rule="evenodd" fill="#1C9AD6" d="M500.169,132.382c-7.198-0.543-14.006,9.42-17.498,19.877
	c-7.166,24.089-15.241,41.841-23.771,59.12c-4.562,9.038-13.738,19.145-28.499,25.252c-17.524,5.428-34.321,12.083-49.135,19.564
	c-38.536,25.87-73.933,61.804-109.56,91.786c-19.809,16.03-38.397,28.421-56.157,38.333c-19.618,10.968-39.236,20.356-58.855,28.611
	c-14.222,5.045-28.437,10.078-42.651,15.126c26.822-13.14,53.622-26.271,80.449-39.418c24.153-13.915,45.967-28.049,62.623-42.651
	c38.349-33.856,74.224-71.606,116.306-100.762c2.781-2.746,10.474-6.42,16.885-8.92c9.732-3.789,19.627-7.313,29.832-10.188
	c12.273-3.815,21.675-11.367,29.179-22.661c5.705-8.779,10.658-16.333,16.203-33.889c3.241-9.343,5.685-19.349,9.466-28.574
	c2.145-4.521,5.011-9.575,13.791-12.428C493.527,129.443,500.175,130.007,500.169,132.382z"/>
<path fill-rule="evenodd" clip-rule="evenodd" fill="#1C9AD6" d="M453.216,368.017c-16.284,18.234-33.542,28.975-52.232,32.969
	c-12.31,3.53-30.738,1.87-45.156-1.229c-83.743-18.052-175.516,40.629-253.054,71.029c-3.315,1.3-2.176,2.026-5.163,3.123
	c62.505-20.364,121.314-40.627,183.198-57.833c19.26-5.575,37.665-7.637,58.069-5.035c15.813,2.041,29.474,3.64,47.969,3.498
	c9.287-0.299,15.736-2.925,22.349-5.936C430.444,398.952,445.279,386.224,453.216,368.017z"/>
<path fill="#00B5EF" d="M635.28,172.19c0.192-4.128-1.931-7.714-4.278-9.283c-12.642-8.514-30.327-8.987-40.916-16.501
	c-3.871-4.383-7.08-8.843-8.647-18.95c-0.855-5.559-3.609-12.158-7.855-15.982c-3.99-3.596-6.889-5.214-12.06-8.033
	c-25.61-8.366-46.959,2.426-63.868,8.463c-38.953,18.618-70.8,34.469-121.788,34.501c28.451,6.225,56.293-1.257,81.327-8.088
	c8.519-2.324,12.749-4.206,20.781-7.556c28.953-15.418,52.713-21.089,72.142-18.688c10.401,2.176,16.562,6.415,18.594,13.941
	c3.898,14.335,2.481,33.383,47.354,38.229C620.648,165.166,628.638,167.615,635.28,172.19z"/>
<path fill-rule="evenodd" clip-rule="evenodd" fill="#00B5EF" d="M545.165,138.141l-5.016-8.947
	c-3.247,1.818-5.247,5.236-5.247,8.947c0,5.677,4.594,10.276,10.263,10.276c5.668,0,10.268-4.599,10.268-10.276
	c0-5.532-4.401-10.078-9.937-10.26L545.165,138.141z"/>
<path fill="#00B5EF" d="M593.546,165.511c-14,3.097-22.178,8.292-25.06,23.913c-1.214,20.495,0.903,42.394,3.712,67.133
	c0.476,12.383,0.54,24.509-2.369,36.062c-2.984,22.439-12.15,38.635-21.647,52.943c-13.221,18.974-28.039,31.602-43.805,39.891
	c-26.171,13.99-40.658,24.961-47.392,34.084c-15.182,18.509-22.006,48.825-24.07,71.777c4.776,12.354,9.578,24.718,14.343,37.065
	c9.584,22.595,19.161,45.194,28.734,67.794c1.946,3.866,3.353,7.059,5.251,10.198c4.68,7.728,15.915,19.669,24.027,22.964
	c13.295,4.845,27.161,7.39,41.407,8.336c-13.93,1.664-28.84,0.878-44.733-2.331c-16.76-4.197-34.061-20.081-37.028-26.509
	c-15.476-38.958-31.557-78.228-47.039-117.186c1.99-22.76,5.188-44.691,15.921-62.58c1.792-3.572,4.674-6.655,6.466-10.211
	c-23.782,17.081-33.627,46.224-41.691,75.101c5.896,14.696,13.08,28.739,18.979,43.451c4.674,12.006,9.342,24.027,14.016,36.06
	c17.295,39.798,24.375,57.189,66.463,65.109c-30.307,0.626-56.879-2.728-68.431-33.52c-13.589-32.274-26.854-64.768-40.429-97.047
	c-1.564-4.117-4.875-10.882-6.447-14.994c7.292-23.947,15.501-51.831,33.11-70.208c14.295-13.416,28.91-24.852,48.473-32.122
	c11.846-4.962,25.274-13.241,41.407-22.591c9.515-8.297,17.846-15.38,26.777-27.386c6.417-10.038,13.812-21.292,18.973-36.41
	c4.3-11.588,6.278-24.34,6.338-38.068c-0.893-16.353-1.771-32.717-2.679-49.082c0.192-16.621,3.999-24.664,10.026-34.608
	C574.604,169.634,584.075,163.952,593.546,165.511z"/>
<path fill="#00B5EF" d="M500.169,132.382c-7.198-0.543-14.006,9.42-17.498,19.877c-7.166,24.089-15.241,41.841-23.771,59.12
	c-4.562,9.038-13.738,19.145-28.499,25.252c-17.524,5.428-34.321,12.083-49.135,19.564c-38.536,25.87-73.933,61.804-109.56,91.786
	c-19.809,16.03-38.397,28.421-56.157,38.333c-19.618,10.968-39.236,20.356-58.855,28.611c-14.222,5.045-28.437,10.078-42.651,15.126
	c26.822-13.14,53.622-26.271,80.449-39.418c24.153-13.915,45.967-28.049,62.623-42.651c38.349-33.856,74.224-71.606,116.306-100.762
	c2.781-2.746,10.474-6.42,16.885-8.92c9.732-3.789,19.627-7.313,29.832-10.188c12.273-3.815,21.675-11.367,29.179-22.661
	c5.705-8.779,10.658-16.333,16.203-33.889c3.241-9.343,5.685-19.349,9.466-28.574c2.145-4.521,5.011-9.575,13.791-12.428
	C493.527,129.443,500.175,130.007,500.169,132.382z"/>
<path fill="#00B5EF" d="M453.216,368.017c-16.284,18.234-33.542,28.975-52.232,32.969c-12.31,3.53-30.738,1.87-45.156-1.229
	c-83.743-18.052-175.516,40.629-253.054,71.029c-3.315,1.3-2.176,2.026-5.163,3.123c62.505-20.364,121.314-40.627,183.198-57.833
	c19.26-5.575,37.665-7.637,58.069-5.035c15.813,2.041,29.474,3.64,47.969,3.498c9.287-0.299,15.736-2.925,22.349-5.936
	C430.444,398.952,445.279,386.224,453.216,368.017z"/>
<path fill="#00000A" d="M249.343,891.217c2.112,0,3.938,0.722,5.468,2.154c1.532,1.438,2.3,3.145,2.3,5.123v72.815
	c0,2.685,0.845,5.311,2.538,7.888c1.585,2.278,3.804,3.958,6.658,5.048c0.845,0.396,1.767,0.669,2.772,0.813
	c1.003,0.155,1.984,0.225,2.937,0.225c3.166,0,5.968-0.791,8.401-2.374c2.426-1.481,4.222-3.524,5.388-6.097
	c0.845-1.877,1.27-3.711,1.27-5.503v-72.815c0-1.979,0.762-3.685,2.299-5.123c1.527-1.433,3.356-2.154,5.468-2.154
	c2.115,0,3.933,0.722,5.471,2.154c1.53,1.438,2.3,3.145,2.3,5.123v72.815c0,5.952-1.744,11.3-5.236,16.064
	c-3.382,4.647-7.872,8.118-13.474,10.396c-3.698,1.486-7.663,2.229-11.888,2.229c-6.024,0-11.68-1.637-16.963-4.903
	c-2.43-1.583-4.599-3.444-6.5-5.572c-1.901-2.134-3.43-4.481-4.596-7.06c-1.585-3.566-2.38-7.278-2.38-11.155v-72.815
	c0-1.979,0.768-3.685,2.297-5.123C245.409,891.938,247.228,891.217,249.343,891.217z"/>
<path fill="#00000A" d="M391.86,939.218c-0.74,1.091-1.562,2.128-2.454,3.123c-0.909,0.995-1.832,1.883-2.778,2.663
	c-0.529,0.508-0.846,1.097-0.949,1.792c-0.112,0.694,0.051,1.288,0.473,1.785c2.96,3.669,4.752,7.681,5.389,12.033
	c0.32,1.78,0.66,3.893,1.031,6.315c0.369,2.429,0.741,4.958,1.11,7.577c0.371,2.632,0.735,5.161,1.112,7.579
	c0.363,2.433,0.708,4.438,1.029,6.026l0.474,3.418c0.314,1.983-0.185,3.78-1.503,5.428c-1.329,1.625-3.046,2.599-5.158,2.887
	c-0.214,0.107-0.58,0.155-1.102,0.155c-1.906,0-3.602-0.599-5.083-1.791c-1.477-1.182-2.372-2.717-2.692-4.594
	c0-0.102-0.187-1.363-0.551-3.797c-0.369-2.428-0.794-5.3-1.267-8.626c-0.476-3.315-0.981-6.686-1.508-10.097
	c-0.53-3.417-0.949-6.214-1.27-8.401c-0.524-2.872-1.896-5.192-4.123-6.984c-2.321-1.877-4.968-2.818-7.928-2.818h-10.46
	c-0.845,0-1.527,0.247-2.064,0.744c-0.524,0.497-0.786,1.133-0.786,1.931v37.006c0,2.08-0.771,3.835-2.297,5.268
	c-1.537,1.438-3.356,2.16-5.471,2.16c-2.217,0-4.096-0.722-5.625-2.16c-1.533-1.433-2.3-3.188-2.3-5.268v-94.078
	c0-1.979,0.789-3.711,2.379-5.203c1.474-1.38,3.329-2.074,5.546-2.074h21.554c6.765,0,12.894,1.732,18.391,5.203
	c5.498,3.465,9.512,7.973,12.049,13.519c0.846,1.989,1.481,3.968,1.906,5.947c0.418,1.983,0.629,4.011,0.629,6.096
	C397.562,928.421,395.665,934.169,391.86,939.218z M380.606,928.367c0.844-2.177,1.265-4.311,1.265-6.386
	c0-3.171-0.952-6.197-2.856-9.069c-2.008-2.674-4.543-4.604-7.604-5.792c-2.228-0.893-4.495-1.342-6.824-1.342h-10.936
	c-0.845,0-1.527,0.251-2.064,0.738c-0.524,0.507-0.786,1.149-0.786,1.936v27.198c0,0.695,0.262,1.289,0.786,1.787
	c0.538,0.486,1.219,0.742,2.064,0.742h10.46h0.163h0.158h0.155c3.599,0,6.824-0.897,9.68-2.673
	C377.215,933.726,379.336,931.34,380.606,928.367z"/>
<path fill="#00000A" d="M434.818,891.217c2.113,0,3.937,0.722,5.466,2.154c1.529,1.438,2.3,3.145,2.3,5.123v72.815
	c0,2.685,0.845,5.311,2.534,7.888c1.584,2.278,3.798,3.958,6.659,5.048c0.845,0.396,1.77,0.669,2.775,0.813
	c1,0.155,1.979,0.225,2.93,0.225c3.172,0,5.969-0.791,8.407-2.374c2.422-1.481,4.225-3.524,5.385-6.097
	c0.845-1.877,1.273-3.711,1.273-5.503v-72.815c0-1.979,0.754-3.685,2.294-5.123c1.534-1.433,3.354-2.154,5.466-2.154
	c2.117,0,3.936,0.722,5.471,2.154c1.534,1.438,2.305,3.145,2.305,5.123v72.815c0,5.952-1.743,11.3-5.235,16.064
	c-3.386,4.647-7.877,8.118-13.477,10.396c-3.701,1.486-7.663,2.229-11.889,2.229c-6.026,0-11.68-1.637-16.962-4.903
	c-2.429-1.583-4.6-3.444-6.498-5.572c-1.904-2.134-3.438-4.481-4.594-7.06c-1.589-3.566-2.386-7.278-2.386-11.155v-72.815
	c0-1.979,0.771-3.685,2.305-5.123C430.872,891.938,432.696,891.217,434.818,891.217z"/>
</svg>
